<svg xmlns="http://www.w3.org/2000/svg" viewBox="0 0 64 64" width="32" height="32"> <!-- Doubled viewBox height -->
  <defs>
    <linearGradient id="flapGradient" x1="0%" y1="0%" x2="0%" y2="100%">
      <stop offset="0%" style="stop-color:#333;stop-opacity:1" />
      <stop offset="49%" style="stop-color:#444;stop-opacity:1" />
      <stop offset="51%" style="stop-color:#222;stop-opacity:1" />
      <stop offset="100%" style="stop-color:#333;stop-opacity:1" />
    </linearGradient>
    <filter id="shadow" x="-10%" y="-10%" width="120%" height="120%"> <!-- Adjusted filter area slightly -->
      <feDropShadow dx="1" dy="1" stdDeviation="0.5" flood-color="#000" flood-opacity="0.3"/>
    </filter>
  </defs>

  <!-- Module 1: S -->
  <g filter="url(#shadow)">
    <rect width="28" height="56" x="2" y="2" rx="3" ry="3" fill="#111" /> <!-- Doubled height -->
    <rect width="24" height="48" x="4" y="4" rx="2" ry="2" fill="url(#flapGradient)" /> <!-- Doubled height -->
    <line x1="4" y1="30" x2="28" y2="30" stroke="#000" stroke-width="1.5" stroke-opacity="0.8"/> <!-- Adjusted y position -->
    <!-- Smoother 'S' character representation -->
    <path d="M 22 18 Q 18 14, 14 18 T 10 22 Q 8 26, 12 30 T 18 34 Q 22 38, 18 42 T 10 46" stroke="#FFF" stroke-width="2.5" fill="none" /> <!-- Adjusted path for smoother S -->
  </g>

  <!-- Module 2: F -->
  <g filter="url(#shadow)">
    <rect width="28" height="56" x="34" y="2" rx="3" ry="3" fill="#111" /> <!-- Doubled height -->
    <rect width="24" height="48" x="36" y="4" rx="2" ry="2" fill="url(#flapGradient)" /> <!-- Doubled height -->
    <line x1="36" y1="30" x2="60" y2="30" stroke="#000" stroke-width="1.5" stroke-opacity="0.8"/> <!-- Adjusted y position -->
    <!-- More standard 'F' character representation -->
    <path d="M 40 18 L 40 46 M 40 18 L 52 18 M 40 30 L 49 30" stroke="#FFF" stroke-width="2.5" fill="none" /> <!-- Adjusted path for standard F -->
  </g>
</svg>
