<svg xmlns="http://www.w3.org/2000/svg" viewBox="0 0 64 32" width="32" height="32">
  <defs>
    <linearGradient id="flapGradient" x1="0%" y1="0%" x2="0%" y2="100%">
      <stop offset="0%" style="stop-color:#333;stop-opacity:1" />
      <stop offset="49%" style="stop-color:#444;stop-opacity:1" />
      <stop offset="51%" style="stop-color:#222;stop-opacity:1" />
      <stop offset="100%" style="stop-color:#333;stop-opacity:1" />
    </linearGradient>
    <filter id="shadow" x="-10%" y="-10%" width="120%" height="120%"> <!-- Adjusted filter area slightly -->
      <feDropShadow dx="1" dy="1" stdDeviation="0.5" flood-color="#000" flood-opacity="0.3"/>
    </filter>
  </defs>

  <!-- Module 1: S -->
  <g filter="url(#shadow)">
    <rect width="28" height="28" x="2" y="2" rx="3" ry="3" fill="#111" />
    <rect width="24" height="24" x="4" y="4" rx="2" ry="2" fill="url(#flapGradient)" />
    <line x1="4" y1="16" x2="28" y2="16" stroke="#000" stroke-width="1.5" stroke-opacity="0.8"/>
    <!-- Simple 'S' character representation -->
    <path d="M 24 11 C 24 9, 8 9, 8 13 S 24 17, 24 19 C 24 21, 8 21, 8 25" stroke="#FFF" stroke-width="2" fill="none" />
  </g>

  <!-- Module 2: F -->
  <g filter="url(#shadow)">
    <rect width="28" height="28" x="34" y="2" rx="3" ry="3" fill="#111" /> <!-- x = 2 + 28 + 4 = 34 -->
    <rect width="24" height="24" x="36" y="4" rx="2" ry="2" fill="url(#flapGradient)" /> <!-- x = 34 + 2 = 36 -->
    <line x1="36" y1="16" x2="60" y2="16" stroke="#000" stroke-width="1.5" stroke-opacity="0.8"/> <!-- x1=36, x2=36+24=60 -->
    <!-- Simple 'F' character representation (shifted) -->
    <path d="M 42 10 L 42 22 M 42 10 L 48 10 M 42 16 L 47 16" stroke="#FFF" stroke-width="2" fill="none" /> <!-- Shifted X by 32 (36-4) -->
  </g>
</svg>
